<mxfile host="app.diagrams.net" agent="Mozilla/5.0 (Windows NT 10.0; Win64; x64) AppleWebKit/537.36 (KHTML, like Gecko) Chrome/141.0.0.0 Safari/537.36" version="28.2.5">
  <diagram name="Pagina-1" id="q0R-DiMl9bQ7n-zEkk0Q">
    <mxGraphModel dx="3691" dy="1061" grid="1" gridSize="10" guides="1" tooltips="1" connect="1" arrows="1" fold="1" page="1" pageScale="1" pageWidth="827" pageHeight="1169" math="0" shadow="0">
      <root>
        <mxCell id="0" />
        <mxCell id="1" parent="0" />
        <mxCell id="BIkzrDDKxzb5Q48C-RdH-11" value="&lt;p style=&quot;margin:0px;margin-top:6px;text-align:center;&quot;&gt;&lt;b&gt;Application&lt;/b&gt;&lt;/p&gt;&lt;hr size=&quot;1&quot; style=&quot;border-style:solid;&quot;&gt;&lt;p style=&quot;margin:0px;margin-left:8px;&quot;&gt;&lt;br&gt;&lt;/p&gt;" style="align=left;overflow=fill;html=1;dropTarget=0;whiteSpace=wrap;fillColor=none;" vertex="1" parent="1">
          <mxGeometry x="-1250" y="520" width="510" height="400" as="geometry" />
        </mxCell>
        <mxCell id="BIkzrDDKxzb5Q48C-RdH-12" value="" style="shape=component;jettyWidth=8;jettyHeight=4;" vertex="1" parent="BIkzrDDKxzb5Q48C-RdH-11">
          <mxGeometry x="1" width="20" height="20" relative="1" as="geometry">
            <mxPoint x="-24" y="4" as="offset" />
          </mxGeometry>
        </mxCell>
        <mxCell id="BIkzrDDKxzb5Q48C-RdH-9" value="&lt;p style=&quot;margin:0px;margin-top:6px;text-align:center;&quot;&gt;&lt;b&gt;Infrastructure&lt;/b&gt;&lt;/p&gt;&lt;hr size=&quot;1&quot; style=&quot;border-style:solid;&quot;&gt;&lt;p style=&quot;margin:0px;margin-left:8px;&quot;&gt;&lt;br&gt;&lt;/p&gt;" style="align=left;overflow=fill;html=1;dropTarget=0;whiteSpace=wrap;fillColor=none;" vertex="1" parent="1">
          <mxGeometry x="-685" y="520" width="635" height="400" as="geometry" />
        </mxCell>
        <mxCell id="BIkzrDDKxzb5Q48C-RdH-10" value="" style="shape=component;jettyWidth=8;jettyHeight=4;" vertex="1" parent="BIkzrDDKxzb5Q48C-RdH-9">
          <mxGeometry x="1" width="20" height="20" relative="1" as="geometry">
            <mxPoint x="-24" y="4" as="offset" />
          </mxGeometry>
        </mxCell>
        <mxCell id="BIkzrDDKxzb5Q48C-RdH-7" value="&lt;p style=&quot;margin:0px;margin-top:6px;text-align:center;&quot;&gt;&lt;b&gt;Domain&lt;/b&gt;&lt;/p&gt;&lt;hr size=&quot;1&quot; style=&quot;border-style:solid;&quot;&gt;&lt;p style=&quot;margin:0px;margin-left:8px;&quot;&gt;&lt;br&gt;&lt;/p&gt;" style="align=left;overflow=fill;html=1;dropTarget=0;whiteSpace=wrap;fillColor=none;" vertex="1" parent="1">
          <mxGeometry x="-1585" y="520" width="290" height="400" as="geometry" />
        </mxCell>
        <mxCell id="BIkzrDDKxzb5Q48C-RdH-8" value="" style="shape=component;jettyWidth=8;jettyHeight=4;" vertex="1" parent="BIkzrDDKxzb5Q48C-RdH-7">
          <mxGeometry x="1" width="20" height="20" relative="1" as="geometry">
            <mxPoint x="-24" y="4" as="offset" />
          </mxGeometry>
        </mxCell>
        <mxCell id="eZg6hNm4IzYlrM6w4R0b-60" style="rounded=0;orthogonalLoop=1;jettySize=auto;html=1;exitX=0.25;exitY=1;exitDx=0;exitDy=0;entryX=0.163;entryY=-0.035;entryDx=0;entryDy=0;entryPerimeter=0;" parent="1" target="eZg6hNm4IzYlrM6w4R0b-48" edge="1" source="BIkzrDDKxzb5Q48C-RdH-23">
          <mxGeometry relative="1" as="geometry">
            <mxPoint x="-16.039999999999964" y="782.96" as="sourcePoint" />
          </mxGeometry>
        </mxCell>
        <mxCell id="eZg6hNm4IzYlrM6w4R0b-62" value="webSocket" style="edgeLabel;html=1;align=center;verticalAlign=middle;resizable=0;points=[];fontSize=12;" parent="eZg6hNm4IzYlrM6w4R0b-60" vertex="1" connectable="0">
          <mxGeometry x="0.0714" y="1" relative="1" as="geometry">
            <mxPoint x="-50" y="2" as="offset" />
          </mxGeometry>
        </mxCell>
        <mxCell id="eZg6hNm4IzYlrM6w4R0b-46" value="«Frontend»" style="html=1;dropTarget=0;whiteSpace=wrap;" parent="1" vertex="1">
          <mxGeometry x="-260" y="1000" width="180" height="90" as="geometry" />
        </mxCell>
        <mxCell id="eZg6hNm4IzYlrM6w4R0b-47" value="" style="shape=module;jettyWidth=8;jettyHeight=4;" parent="eZg6hNm4IzYlrM6w4R0b-46" vertex="1">
          <mxGeometry x="1" width="20" height="20" relative="1" as="geometry">
            <mxPoint x="-27" y="7" as="offset" />
          </mxGeometry>
        </mxCell>
        <mxCell id="eZg6hNm4IzYlrM6w4R0b-48" value="«Frontend»" style="html=1;dropTarget=0;whiteSpace=wrap;" parent="1" vertex="1">
          <mxGeometry x="-502.99999999999994" y="1000" width="180" height="90" as="geometry" />
        </mxCell>
        <mxCell id="eZg6hNm4IzYlrM6w4R0b-49" value="" style="shape=module;jettyWidth=8;jettyHeight=4;" parent="eZg6hNm4IzYlrM6w4R0b-48" vertex="1">
          <mxGeometry x="1" width="20" height="20" relative="1" as="geometry">
            <mxPoint x="-27" y="7" as="offset" />
          </mxGeometry>
        </mxCell>
        <mxCell id="eZg6hNm4IzYlrM6w4R0b-53" value="" style="rounded=0;orthogonalLoop=1;jettySize=auto;html=1;endArrow=halfCircle;endFill=0;endSize=6;strokeWidth=1;sketch=0;exitX=0.75;exitY=0;exitDx=0;exitDy=0;" parent="1" source="eZg6hNm4IzYlrM6w4R0b-48" edge="1">
          <mxGeometry relative="1" as="geometry">
            <mxPoint x="98.92000000000002" y="845" as="sourcePoint" />
            <mxPoint x="-340" y="960" as="targetPoint" />
          </mxGeometry>
        </mxCell>
        <mxCell id="eZg6hNm4IzYlrM6w4R0b-64" value="HTTP" style="edgeLabel;html=1;align=center;verticalAlign=middle;resizable=0;points=[];fontSize=12;" parent="eZg6hNm4IzYlrM6w4R0b-53" vertex="1" connectable="0">
          <mxGeometry x="0.3667" y="1" relative="1" as="geometry">
            <mxPoint x="-22" y="1" as="offset" />
          </mxGeometry>
        </mxCell>
        <mxCell id="eZg6hNm4IzYlrM6w4R0b-54" value="" style="rounded=0;orthogonalLoop=1;jettySize=auto;html=1;endArrow=oval;endFill=0;sketch=0;sourcePerimeterSpacing=0;targetPerimeterSpacing=0;endSize=10;exitX=0.559;exitY=0.925;exitDx=0;exitDy=0;exitPerimeter=0;" parent="1" edge="1" source="BIkzrDDKxzb5Q48C-RdH-9">
          <mxGeometry relative="1" as="geometry">
            <mxPoint x="-20" y="799.97" as="sourcePoint" />
            <mxPoint x="-340" y="960" as="targetPoint" />
          </mxGeometry>
        </mxCell>
        <mxCell id="eZg6hNm4IzYlrM6w4R0b-56" value="" style="rounded=0;orthogonalLoop=1;jettySize=auto;html=1;endArrow=halfCircle;endFill=0;endSize=6;strokeWidth=1;sketch=0;exitX=0.75;exitY=0;exitDx=0;exitDy=0;" parent="1" source="eZg6hNm4IzYlrM6w4R0b-46" edge="1">
          <mxGeometry relative="1" as="geometry">
            <mxPoint x="98.92000000000002" y="685" as="sourcePoint" />
            <mxPoint x="-170" y="950" as="targetPoint" />
          </mxGeometry>
        </mxCell>
        <mxCell id="eZg6hNm4IzYlrM6w4R0b-63" value="HTTP" style="edgeLabel;html=1;align=center;verticalAlign=middle;resizable=0;points=[];fontSize=12;" parent="eZg6hNm4IzYlrM6w4R0b-56" vertex="1" connectable="0">
          <mxGeometry x="0.2952" y="-1" relative="1" as="geometry">
            <mxPoint x="23" y="-7" as="offset" />
          </mxGeometry>
        </mxCell>
        <mxCell id="eZg6hNm4IzYlrM6w4R0b-57" value="" style="rounded=0;orthogonalLoop=1;jettySize=auto;html=1;endArrow=oval;endFill=0;sketch=0;sourcePerimeterSpacing=0;targetPerimeterSpacing=0;endSize=10;exitX=0.891;exitY=1.008;exitDx=0;exitDy=0;exitPerimeter=0;" parent="1" edge="1" source="BIkzrDDKxzb5Q48C-RdH-23">
          <mxGeometry relative="1" as="geometry">
            <mxPoint x="-20" y="747.5" as="sourcePoint" />
            <mxPoint x="-170" y="950" as="targetPoint" />
          </mxGeometry>
        </mxCell>
        <mxCell id="eZg6hNm4IzYlrM6w4R0b-59" style="rounded=0;orthogonalLoop=1;jettySize=auto;html=1;exitX=0.75;exitY=1;exitDx=0;exitDy=0;" parent="1" edge="1" source="BIkzrDDKxzb5Q48C-RdH-23">
          <mxGeometry relative="1" as="geometry">
            <mxPoint x="-16.940000000000055" y="755.96" as="sourcePoint" />
            <mxPoint x="-220" y="1000" as="targetPoint" />
          </mxGeometry>
        </mxCell>
        <mxCell id="eZg6hNm4IzYlrM6w4R0b-61" value="webSocket" style="edgeLabel;html=1;align=center;verticalAlign=middle;resizable=0;points=[];fontSize=12;" parent="eZg6hNm4IzYlrM6w4R0b-59" vertex="1" connectable="0">
          <mxGeometry x="0.1112" y="-2" relative="1" as="geometry">
            <mxPoint x="10" y="13" as="offset" />
          </mxGeometry>
        </mxCell>
        <mxCell id="BIkzrDDKxzb5Q48C-RdH-13" value="&lt;b&gt;:Game&lt;/b&gt;" style="html=1;dropTarget=0;whiteSpace=wrap;" vertex="1" parent="1">
          <mxGeometry x="-1530" y="580" width="180" height="90" as="geometry" />
        </mxCell>
        <mxCell id="BIkzrDDKxzb5Q48C-RdH-14" value="" style="shape=module;jettyWidth=8;jettyHeight=4;" vertex="1" parent="BIkzrDDKxzb5Q48C-RdH-13">
          <mxGeometry x="1" width="20" height="20" relative="1" as="geometry">
            <mxPoint x="-27" y="7" as="offset" />
          </mxGeometry>
        </mxCell>
        <mxCell id="BIkzrDDKxzb5Q48C-RdH-15" value="&lt;b&gt;:User&lt;/b&gt;" style="html=1;dropTarget=0;whiteSpace=wrap;" vertex="1" parent="1">
          <mxGeometry x="-1530" y="800" width="180" height="90" as="geometry" />
        </mxCell>
        <mxCell id="BIkzrDDKxzb5Q48C-RdH-16" value="" style="shape=module;jettyWidth=8;jettyHeight=4;" vertex="1" parent="BIkzrDDKxzb5Q48C-RdH-15">
          <mxGeometry x="1" width="20" height="20" relative="1" as="geometry">
            <mxPoint x="-27" y="7" as="offset" />
          </mxGeometry>
        </mxCell>
        <mxCell id="BIkzrDDKxzb5Q48C-RdH-17" value="&lt;b&gt;:GameRegistryImpl&lt;/b&gt;" style="html=1;dropTarget=0;whiteSpace=wrap;" vertex="1" parent="1">
          <mxGeometry x="-630" y="580" width="180" height="90" as="geometry" />
        </mxCell>
        <mxCell id="BIkzrDDKxzb5Q48C-RdH-18" value="" style="shape=module;jettyWidth=8;jettyHeight=4;" vertex="1" parent="BIkzrDDKxzb5Q48C-RdH-17">
          <mxGeometry x="1" width="20" height="20" relative="1" as="geometry">
            <mxPoint x="-27" y="7" as="offset" />
          </mxGeometry>
        </mxCell>
        <mxCell id="BIkzrDDKxzb5Q48C-RdH-19" value="&lt;b&gt;:VertxFileUserRegistry&lt;/b&gt;" style="html=1;dropTarget=0;whiteSpace=wrap;" vertex="1" parent="1">
          <mxGeometry x="-630" y="800" width="180" height="90" as="geometry" />
        </mxCell>
        <mxCell id="BIkzrDDKxzb5Q48C-RdH-20" value="" style="shape=module;jettyWidth=8;jettyHeight=4;" vertex="1" parent="BIkzrDDKxzb5Q48C-RdH-19">
          <mxGeometry x="1" width="20" height="20" relative="1" as="geometry">
            <mxPoint x="-27" y="7" as="offset" />
          </mxGeometry>
        </mxCell>
        <mxCell id="BIkzrDDKxzb5Q48C-RdH-60" style="edgeStyle=orthogonalEdgeStyle;rounded=0;orthogonalLoop=1;jettySize=auto;html=1;entryX=1;entryY=0.5;entryDx=0;entryDy=0;" edge="1" parent="1" source="BIkzrDDKxzb5Q48C-RdH-21" target="BIkzrDDKxzb5Q48C-RdH-23">
          <mxGeometry relative="1" as="geometry" />
        </mxCell>
        <mxCell id="BIkzrDDKxzb5Q48C-RdH-61" value="event bus" style="edgeLabel;html=1;align=center;verticalAlign=middle;resizable=0;points=[];fontSize=12;" vertex="1" connectable="0" parent="BIkzrDDKxzb5Q48C-RdH-60">
          <mxGeometry x="-0.4367" y="1" relative="1" as="geometry">
            <mxPoint x="34" as="offset" />
          </mxGeometry>
        </mxCell>
        <mxCell id="BIkzrDDKxzb5Q48C-RdH-21" value="&lt;b&gt;:VertxEventPublisher&lt;/b&gt;" style="html=1;dropTarget=0;whiteSpace=wrap;" vertex="1" parent="1">
          <mxGeometry x="-255" y="692.5" width="180" height="90" as="geometry" />
        </mxCell>
        <mxCell id="BIkzrDDKxzb5Q48C-RdH-22" value="" style="shape=module;jettyWidth=8;jettyHeight=4;" vertex="1" parent="BIkzrDDKxzb5Q48C-RdH-21">
          <mxGeometry x="1" width="20" height="20" relative="1" as="geometry">
            <mxPoint x="-27" y="7" as="offset" />
          </mxGeometry>
        </mxCell>
        <mxCell id="BIkzrDDKxzb5Q48C-RdH-23" value="&lt;b&gt;:HttpCommunication&lt;/b&gt;" style="html=1;dropTarget=0;whiteSpace=wrap;" vertex="1" parent="1">
          <mxGeometry x="-405" y="800" width="180" height="90" as="geometry" />
        </mxCell>
        <mxCell id="BIkzrDDKxzb5Q48C-RdH-24" value="" style="shape=module;jettyWidth=8;jettyHeight=4;" vertex="1" parent="BIkzrDDKxzb5Q48C-RdH-23">
          <mxGeometry x="1" width="20" height="20" relative="1" as="geometry">
            <mxPoint x="-27" y="7" as="offset" />
          </mxGeometry>
        </mxCell>
        <mxCell id="BIkzrDDKxzb5Q48C-RdH-25" value="&lt;b&gt;:TTTBackend&lt;/b&gt;" style="html=1;dropTarget=0;whiteSpace=wrap;" vertex="1" parent="1">
          <mxGeometry x="-630" y="692.5" width="180" height="90" as="geometry" />
        </mxCell>
        <mxCell id="BIkzrDDKxzb5Q48C-RdH-26" value="" style="shape=module;jettyWidth=8;jettyHeight=4;" vertex="1" parent="BIkzrDDKxzb5Q48C-RdH-25">
          <mxGeometry x="1" width="20" height="20" relative="1" as="geometry">
            <mxPoint x="-27" y="7" as="offset" />
          </mxGeometry>
        </mxCell>
        <mxCell id="BIkzrDDKxzb5Q48C-RdH-27" value="&lt;b&gt;:AppImpl&lt;/b&gt;" style="html=1;dropTarget=0;whiteSpace=wrap;" vertex="1" parent="1">
          <mxGeometry x="-950" y="692.5" width="180" height="90" as="geometry" />
        </mxCell>
        <mxCell id="BIkzrDDKxzb5Q48C-RdH-28" value="" style="shape=module;jettyWidth=8;jettyHeight=4;" vertex="1" parent="BIkzrDDKxzb5Q48C-RdH-27">
          <mxGeometry x="1" width="20" height="20" relative="1" as="geometry">
            <mxPoint x="-27" y="7" as="offset" />
          </mxGeometry>
        </mxCell>
        <mxCell id="BIkzrDDKxzb5Q48C-RdH-36" style="edgeStyle=orthogonalEdgeStyle;rounded=0;orthogonalLoop=1;jettySize=auto;html=1;entryX=1;entryY=0.5;entryDx=0;entryDy=0;" edge="1" parent="1" source="BIkzrDDKxzb5Q48C-RdH-29" target="BIkzrDDKxzb5Q48C-RdH-15">
          <mxGeometry relative="1" as="geometry" />
        </mxCell>
        <mxCell id="BIkzrDDKxzb5Q48C-RdH-29" value="&lt;b&gt;:UserServiceImpl&lt;/b&gt;" style="html=1;dropTarget=0;whiteSpace=wrap;" vertex="1" parent="1">
          <mxGeometry x="-1190" y="800" width="180" height="90" as="geometry" />
        </mxCell>
        <mxCell id="BIkzrDDKxzb5Q48C-RdH-30" value="" style="shape=module;jettyWidth=8;jettyHeight=4;" vertex="1" parent="BIkzrDDKxzb5Q48C-RdH-29">
          <mxGeometry x="1" width="20" height="20" relative="1" as="geometry">
            <mxPoint x="-27" y="7" as="offset" />
          </mxGeometry>
        </mxCell>
        <mxCell id="BIkzrDDKxzb5Q48C-RdH-35" style="edgeStyle=orthogonalEdgeStyle;rounded=0;orthogonalLoop=1;jettySize=auto;html=1;entryX=1;entryY=0.5;entryDx=0;entryDy=0;" edge="1" parent="1" source="BIkzrDDKxzb5Q48C-RdH-31" target="BIkzrDDKxzb5Q48C-RdH-13">
          <mxGeometry relative="1" as="geometry" />
        </mxCell>
        <mxCell id="BIkzrDDKxzb5Q48C-RdH-31" value="&lt;b&gt;:GameServiceImpl&lt;/b&gt;" style="html=1;dropTarget=0;whiteSpace=wrap;" vertex="1" parent="1">
          <mxGeometry x="-1190" y="580" width="180" height="90" as="geometry" />
        </mxCell>
        <mxCell id="BIkzrDDKxzb5Q48C-RdH-32" value="" style="shape=module;jettyWidth=8;jettyHeight=4;" vertex="1" parent="BIkzrDDKxzb5Q48C-RdH-31">
          <mxGeometry x="1" width="20" height="20" relative="1" as="geometry">
            <mxPoint x="-27" y="7" as="offset" />
          </mxGeometry>
        </mxCell>
        <mxCell id="BIkzrDDKxzb5Q48C-RdH-37" value="" style="rounded=0;orthogonalLoop=1;jettySize=auto;html=1;endArrow=halfCircle;endFill=0;endSize=6;strokeWidth=1;sketch=0;exitX=0.75;exitY=0;exitDx=0;exitDy=0;" edge="1" parent="1" source="BIkzrDDKxzb5Q48C-RdH-27">
          <mxGeometry relative="1" as="geometry">
            <mxPoint x="-610" y="605" as="sourcePoint" />
            <mxPoint x="-710" y="640" as="targetPoint" />
          </mxGeometry>
        </mxCell>
        <mxCell id="BIkzrDDKxzb5Q48C-RdH-54" value="GameRegistry" style="edgeLabel;html=1;align=center;verticalAlign=middle;resizable=0;points=[];fontSize=12;" vertex="1" connectable="0" parent="BIkzrDDKxzb5Q48C-RdH-37">
          <mxGeometry x="-0.4155" relative="1" as="geometry">
            <mxPoint x="-28" y="-17" as="offset" />
          </mxGeometry>
        </mxCell>
        <mxCell id="BIkzrDDKxzb5Q48C-RdH-38" value="" style="rounded=0;orthogonalLoop=1;jettySize=auto;html=1;endArrow=oval;endFill=0;sketch=0;sourcePerimeterSpacing=0;targetPerimeterSpacing=0;endSize=10;exitX=0;exitY=0.5;exitDx=0;exitDy=0;" edge="1" parent="1" source="BIkzrDDKxzb5Q48C-RdH-17">
          <mxGeometry relative="1" as="geometry">
            <mxPoint x="-650" y="605" as="sourcePoint" />
            <mxPoint x="-710" y="640" as="targetPoint" />
          </mxGeometry>
        </mxCell>
        <mxCell id="BIkzrDDKxzb5Q48C-RdH-39" value="" style="ellipse;whiteSpace=wrap;html=1;align=center;aspect=fixed;fillColor=none;strokeColor=none;resizable=0;perimeter=centerPerimeter;rotatable=0;allowArrows=0;points=[];outlineConnect=1;" vertex="1" parent="1">
          <mxGeometry x="-635" y="600" width="10" height="10" as="geometry" />
        </mxCell>
        <mxCell id="BIkzrDDKxzb5Q48C-RdH-40" value="" style="rounded=0;orthogonalLoop=1;jettySize=auto;html=1;endArrow=halfCircle;endFill=0;endSize=6;strokeWidth=1;sketch=0;exitX=0.75;exitY=1;exitDx=0;exitDy=0;" edge="1" parent="1" source="BIkzrDDKxzb5Q48C-RdH-27">
          <mxGeometry relative="1" as="geometry">
            <mxPoint x="-630" y="800" as="sourcePoint" />
            <mxPoint x="-710" y="830" as="targetPoint" />
          </mxGeometry>
        </mxCell>
        <mxCell id="BIkzrDDKxzb5Q48C-RdH-55" value="UserRegistry" style="edgeLabel;html=1;align=center;verticalAlign=middle;resizable=0;points=[];fontSize=12;" vertex="1" connectable="0" parent="BIkzrDDKxzb5Q48C-RdH-40">
          <mxGeometry x="-0.5778" relative="1" as="geometry">
            <mxPoint x="-7" y="27" as="offset" />
          </mxGeometry>
        </mxCell>
        <mxCell id="BIkzrDDKxzb5Q48C-RdH-41" value="" style="rounded=0;orthogonalLoop=1;jettySize=auto;html=1;endArrow=oval;endFill=0;sketch=0;sourcePerimeterSpacing=0;targetPerimeterSpacing=0;endSize=10;exitX=0;exitY=0.5;exitDx=0;exitDy=0;" edge="1" parent="1" source="BIkzrDDKxzb5Q48C-RdH-19">
          <mxGeometry relative="1" as="geometry">
            <mxPoint x="-170" y="802" as="sourcePoint" />
            <mxPoint x="-710" y="830" as="targetPoint" />
          </mxGeometry>
        </mxCell>
        <mxCell id="BIkzrDDKxzb5Q48C-RdH-43" value="" style="rounded=0;orthogonalLoop=1;jettySize=auto;html=1;endArrow=halfCircle;endFill=0;endSize=6;strokeWidth=1;sketch=0;exitX=1;exitY=0.5;exitDx=0;exitDy=0;" edge="1" parent="1" source="BIkzrDDKxzb5Q48C-RdH-27">
          <mxGeometry relative="1" as="geometry">
            <mxPoint x="-640" y="740" as="sourcePoint" />
            <mxPoint x="-710" y="738" as="targetPoint" />
          </mxGeometry>
        </mxCell>
        <mxCell id="BIkzrDDKxzb5Q48C-RdH-56" value="App" style="edgeLabel;html=1;align=center;verticalAlign=middle;resizable=0;points=[];fontSize=12;" vertex="1" connectable="0" parent="BIkzrDDKxzb5Q48C-RdH-43">
          <mxGeometry x="0.2436" y="-1" relative="1" as="geometry">
            <mxPoint x="13" y="-19" as="offset" />
          </mxGeometry>
        </mxCell>
        <mxCell id="BIkzrDDKxzb5Q48C-RdH-44" value="" style="rounded=0;orthogonalLoop=1;jettySize=auto;html=1;endArrow=oval;endFill=0;sketch=0;sourcePerimeterSpacing=0;targetPerimeterSpacing=0;endSize=10;exitX=0;exitY=0.5;exitDx=0;exitDy=0;" edge="1" parent="1" source="BIkzrDDKxzb5Q48C-RdH-25">
          <mxGeometry relative="1" as="geometry">
            <mxPoint x="-415" y="882" as="sourcePoint" />
            <mxPoint x="-710" y="738" as="targetPoint" />
          </mxGeometry>
        </mxCell>
        <mxCell id="BIkzrDDKxzb5Q48C-RdH-45" value="" style="rounded=0;orthogonalLoop=1;jettySize=auto;html=1;endArrow=halfCircle;endFill=0;endSize=6;strokeWidth=1;sketch=0;exitX=1;exitY=0.5;exitDx=0;exitDy=0;" edge="1" parent="1" source="BIkzrDDKxzb5Q48C-RdH-25">
          <mxGeometry relative="1" as="geometry">
            <mxPoint x="-290" y="740" as="sourcePoint" />
            <mxPoint x="-340" y="738" as="targetPoint" />
          </mxGeometry>
        </mxCell>
        <mxCell id="BIkzrDDKxzb5Q48C-RdH-57" value="EventPublisher" style="edgeLabel;html=1;align=center;verticalAlign=middle;resizable=0;points=[];fontSize=12;" vertex="1" connectable="0" parent="BIkzrDDKxzb5Q48C-RdH-45">
          <mxGeometry x="-0.0806" y="2" relative="1" as="geometry">
            <mxPoint x="27" y="-16" as="offset" />
          </mxGeometry>
        </mxCell>
        <mxCell id="BIkzrDDKxzb5Q48C-RdH-46" value="" style="rounded=0;orthogonalLoop=1;jettySize=auto;html=1;endArrow=oval;endFill=0;sketch=0;sourcePerimeterSpacing=0;targetPerimeterSpacing=0;endSize=10;exitX=0;exitY=0.5;exitDx=0;exitDy=0;" edge="1" parent="1" source="BIkzrDDKxzb5Q48C-RdH-21">
          <mxGeometry relative="1" as="geometry">
            <mxPoint x="-100" y="740" as="sourcePoint" />
            <mxPoint x="-340" y="738" as="targetPoint" />
          </mxGeometry>
        </mxCell>
        <mxCell id="BIkzrDDKxzb5Q48C-RdH-48" value="" style="rounded=0;orthogonalLoop=1;jettySize=auto;html=1;endArrow=halfCircle;endFill=0;endSize=6;strokeWidth=1;sketch=0;" edge="1" parent="1">
          <mxGeometry relative="1" as="geometry">
            <mxPoint x="-930" y="690" as="sourcePoint" />
            <mxPoint x="-930" y="630" as="targetPoint" />
          </mxGeometry>
        </mxCell>
        <mxCell id="BIkzrDDKxzb5Q48C-RdH-53" value="GameService" style="edgeLabel;html=1;align=center;verticalAlign=middle;resizable=0;points=[];fontSize=12;" vertex="1" connectable="0" parent="BIkzrDDKxzb5Q48C-RdH-48">
          <mxGeometry x="-0.0586" y="-1" relative="1" as="geometry">
            <mxPoint x="-41" as="offset" />
          </mxGeometry>
        </mxCell>
        <mxCell id="BIkzrDDKxzb5Q48C-RdH-49" value="" style="rounded=0;orthogonalLoop=1;jettySize=auto;html=1;endArrow=oval;endFill=0;sketch=0;sourcePerimeterSpacing=0;targetPerimeterSpacing=0;endSize=10;exitX=1;exitY=0.5;exitDx=0;exitDy=0;" edge="1" parent="1" source="BIkzrDDKxzb5Q48C-RdH-31">
          <mxGeometry relative="1" as="geometry">
            <mxPoint x="-670" y="620" as="sourcePoint" />
            <mxPoint x="-930" y="630" as="targetPoint" />
          </mxGeometry>
        </mxCell>
        <mxCell id="BIkzrDDKxzb5Q48C-RdH-50" value="" style="rounded=0;orthogonalLoop=1;jettySize=auto;html=1;endArrow=halfCircle;endFill=0;endSize=6;strokeWidth=1;sketch=0;exitX=0.105;exitY=1.004;exitDx=0;exitDy=0;exitPerimeter=0;" edge="1" parent="1" source="BIkzrDDKxzb5Q48C-RdH-27">
          <mxGeometry relative="1" as="geometry">
            <mxPoint x="-830" y="915" as="sourcePoint" />
            <mxPoint x="-930" y="840" as="targetPoint" />
          </mxGeometry>
        </mxCell>
        <mxCell id="BIkzrDDKxzb5Q48C-RdH-52" value="UserService" style="edgeLabel;html=1;align=center;verticalAlign=middle;resizable=0;points=[];fontSize=12;" vertex="1" connectable="0" parent="BIkzrDDKxzb5Q48C-RdH-50">
          <mxGeometry x="-0.0238" y="1" relative="1" as="geometry">
            <mxPoint x="-40" as="offset" />
          </mxGeometry>
        </mxCell>
        <mxCell id="BIkzrDDKxzb5Q48C-RdH-51" value="" style="rounded=0;orthogonalLoop=1;jettySize=auto;html=1;endArrow=oval;endFill=0;sketch=0;sourcePerimeterSpacing=0;targetPerimeterSpacing=0;endSize=10;exitX=1;exitY=0.5;exitDx=0;exitDy=0;" edge="1" parent="1" source="BIkzrDDKxzb5Q48C-RdH-29">
          <mxGeometry relative="1" as="geometry">
            <mxPoint x="-870" y="850" as="sourcePoint" />
            <mxPoint x="-930" y="840" as="targetPoint" />
          </mxGeometry>
        </mxCell>
      </root>
    </mxGraphModel>
  </diagram>
</mxfile>
